<svg preserveAspectRatio="none" overflow="visible" style="display: block;" width="24" height="20.0001" viewBox="0 0 24 20.0001" fill="none" xmlns="http://www.w3.org/2000/svg">
<g id="Group">
<path id="Vector" d="M7.97358 12.012H7.97842L3.99405 16.0002L0 12.012H0.0232146H7.97358Z" fill="#298EC2"/>
<path id="Vector_2" d="M7.97359 4.04346L7.97844 12.0121L4.00277 8.02681L7.97359 4.04346Z" fill="#55C6E4"/>
<path id="Vector_3" d="M7.97842 12.012H7.97358H0L4.00275 8.02669L7.97842 12.012Z" fill="#03ACD7"/>
<path id="Vector_4" d="M24 12.012L20.0243 16.008L16.0332 12.012H16.0497H24Z" fill="#298EC2"/>
<path id="Vector_5" d="M23.9999 12.012V19.9894L20.0243 16.008L23.9999 12.012Z" fill="#01A0E1"/>
<path id="Vector_6" d="M16.0332 12.012L12.0159 16.0516L7.97835 12.012H16.0332Z" fill="#01A0E1"/>
<path id="Vector_7" d="M24 12.0121H23.9836H16.0332L20.0311 8.02393L24 12.0121Z" fill="#00ADD7"/>
<path id="Vector_8" d="M20.0311 8.02374L16.0332 12.011V4.04232L20.0311 8.02374Z" fill="#59C8E6"/>
<path id="Vector_9" d="M16.0332 4.04438L15.8349 4.04342H7.8807H7.97356L12.0179 0L16.0332 4.04438Z" fill="#59C8E6"/>
<path id="Vector_10" d="M3.99405 16.0002L0 20.0001V12.0353V12.012L3.99405 16.0002Z" fill="#01A0E1"/>
<path id="Vector_11" d="M12.0052 7.97741L7.97831 12.0121L7.97347 4.04346H7.98024L12.0052 7.97741Z" fill="#298EC2"/>
<path id="Vector_12" d="M16.0331 4.04346L12.0052 7.97741L7.97347 4.04346H16.0331Z" fill="#01A1DD"/>
<path id="Vector_13" d="M16.0333 4.04346V12.0111L12.0054 7.97741L16.0333 4.04346Z" fill="#00ADD7"/>
</g>
</svg>
